<svg xmlns="http://www.w3.org/2000/svg" viewBox="0 0 64 64" fill="none">
  
  <path d="M 18 50 C 10 50, 6 42, 8 32 C 10 20, 20 12, 32 12 C 44 12, 52 22, 50 34 C 48 44, 40 50, 32 52 C 26 52, 22 48, 24 42 C 26 36, 34 34, 38 38 C 40 40, 38 44, 34 44" stroke="#004d4d" stroke-width="3.2" stroke-linecap="round" stroke-linejoin="round"></path>
  
  <path d="M 20 22 C 24 19, 28 18, 32 20" stroke="#004d4d" stroke-width="1.4" stroke-linecap="round" opacity="0.45"></path>
  <path d="M 42 22 C 46 28, 47 33, 44 38" stroke="#004d4d" stroke-width="1.4" stroke-linecap="round" opacity="0.45"></path>
  <path d="M 16 38 C 17 43, 20 46, 24 48" stroke="#004d4d" stroke-width="1.4" stroke-linecap="round" opacity="0.45"></path>
  
  <line x1="32" y1="12" x2="50" y2="34" stroke="#20b2aa" stroke-width="0.9" stroke-dasharray="2 2" opacity="0.5"></line>
  <line x1="8" y1="32" x2="32" y2="12" stroke="#20b2aa" stroke-width="0.9" stroke-dasharray="2 2" opacity="0.5"></line>
  <line x1="34" y1="44" x2="50" y2="34" stroke="#008080" stroke-width="0.9" stroke-dasharray="2 2" opacity="0.4"></line>
  
  <circle cx="32" cy="12" r="3" fill="#20b2aa"></circle>
  <circle cx="50" cy="34" r="2.5" fill="#20b2aa"></circle>
  <circle cx="34" cy="44" r="2" fill="#008080"></circle>
  <circle cx="8" cy="32" r="2" fill="#008080"></circle>
  
  <circle cx="24" cy="42" r="4" stroke="#ff6f61" stroke-width="1" fill="none" opacity="0.3"></circle>
  <circle cx="24" cy="42" r="1.8" fill="#ff6f61"></circle>
</svg>